<svg xmlns="http://www.w3.org/2000/svg" viewBox="0 0 672 353" width="672" height="353">
  <title>Extracted logo</title>
  <g fill="#f42525" fill-rule="evenodd">
    <path d="M 369 271 L 339 281 L 318 284 L 317 285 L 298 285 L 296 286 L 296 351 L 297 352 L 369 352 L 370 351 L 370 272 Z M 560 270 L 559 273 L 560 278 L 559 280 L 560 282 L 559 286 L 560 287 L 559 289 L 560 291 L 560 304 L 559 305 L 560 306 L 559 307 L 560 308 L 560 317 L 559 318 L 560 319 L 560 351 L 561 352 L 620 352 L 621 351 L 621 302 L 622 301 L 621 300 L 621 287 L 592 281 Z M 61 267 L 33 277 L 0 284 L 0 351 L 1 352 L 61 352 L 62 351 L 62 269 Z M 210 253 L 209 254 L 209 351 L 210 352 L 268 352 L 270 350 L 269 349 L 270 345 L 270 298 L 269 297 L 270 295 L 269 291 L 270 283 L 269 281 L 241 269 Z M 321 187 L 321 261 L 322 262 L 327 262 L 350 255 L 420 225 L 441 219 L 453 218 L 454 217 L 472 217 L 497 222 L 519 230 L 524 233 L 529 234 L 541 240 L 574 253 L 620 265 L 622 262 L 621 261 L 622 255 L 621 254 L 621 197 L 606 191 L 585 180 L 583 180 L 581 178 L 531 153 L 508 143 L 485 136 L 474 135 L 473 134 L 446 134 L 424 139 L 399 149 L 332 183 Z M 0 178 L 0 258 L 1 259 L 11 258 L 34 252 L 127 220 L 143 217 L 165 217 L 166 218 L 173 218 L 178 220 L 182 220 L 200 226 L 262 254 L 283 261 L 295 263 L 295 186 L 293 184 L 267 172 L 252 163 L 232 153 L 230 153 L 224 149 L 192 137 L 172 133 L 134 134 L 97 145 L 94 147 L 86 149 L 83 151 L 80 151 L 55 161 L 52 161 L 46 164 L 34 167 L 31 169 L 28 169 L 7 176 L 2 176 Z M 296 90 L 296 156 L 297 157 L 306 156 L 323 151 L 349 139 L 402 110 L 430 99 L 445 96 L 474 96 L 489 99 L 501 103 L 545 124 L 578 142 L 602 152 L 621 157 L 621 90 L 536 41 L 512 29 L 487 21 L 477 20 L 476 19 L 445 19 L 422 24 L 400 33 L 392 38 L 390 38 Z M 632 13 L 632 44 L 633 45 L 637 44 L 637 33 L 639 31 L 642 31 L 645 34 L 650 43 L 652 45 L 656 45 L 657 44 L 649 32 L 653 28 L 656 22 L 656 19 L 654 15 L 647 11 L 635 11 Z M 637 17 L 638 16 L 647 16 L 651 20 L 651 22 L 647 26 L 638 26 L 637 25 Z M 210 11 L 209 12 L 209 116 L 211 118 L 257 140 L 259 140 L 266 144 L 269 144 L 270 142 L 270 16 L 269 15 L 270 13 L 268 11 Z M 61 11 L 1 11 L 0 12 L 0 145 L 1 146 L 6 146 L 23 142 L 56 130 L 62 126 L 62 13 Z M 636 1 L 627 5 L 619 13 L 615 24 L 616 37 L 620 45 L 627 52 L 632 55 L 638 57 L 653 56 L 659 53 L 667 45 L 671 35 L 671 22 L 666 11 L 660 5 L 651 1 L 645 1 L 644 0 Z M 640 5 L 647 5 L 657 9 L 664 17 L 667 27 L 666 36 L 662 44 L 658 48 L 650 52 L 645 53 L 637 52 L 631 49 L 624 42 L 620 33 L 620 24 L 624 15 L 633 7 Z"/>
  </g>
</svg>
